<svg xmlns:xlink="http://www.w3.org/1999/xlink" xmlns="http://www.w3.org/2000/svg" width="31" height="39" viewBox="0 0 31 39" fill="none"><path fill-rule="evenodd" clip-rule="evenodd" d="M18.3567 7.52352C16.5762 6.55271 14.4246 6.55271 12.6443 7.52352L3.10995 12.7224C1.19287 13.7677 0 15.7768 0 17.9605V27.78C0 29.9636 1.19287 31.9728 3.10995 33.018L12.6443 38.2169C14.4246 39.1876 16.5762 39.1876 18.3567 38.2169L27.891 33.018C29.8081 31.9728 31.001 29.9636 31.001 27.78V17.9605C31.001 15.7768 29.8081 13.7677 27.891 12.7224L18.3567 7.52352ZM15.5009 16.9041C14.9359 16.9041 14.5581 17.5818 13.8023 18.9375L13.6069 19.2883C13.3923 19.6736 13.2849 19.8661 13.1174 19.9931C12.95 20.1202 12.7416 20.1676 12.3245 20.2618L11.9449 20.3477C10.4773 20.6798 9.74359 20.8457 9.56902 21.4071C9.39445 21.9685 9.89466 22.5534 10.8951 23.7234L11.1539 24.0261C11.4382 24.3584 11.5803 24.5246 11.6444 24.7303C11.7082 24.9359 11.6867 25.1576 11.6438 25.6013L11.6046 26.005C11.4534 27.566 11.3778 28.3463 11.8347 28.6934C12.2919 29.0402 12.9788 28.724 14.3528 28.0914L14.7082 27.9277C15.0988 27.7479 15.2939 27.6581 15.5009 27.6581C15.7079 27.6581 15.903 27.7479 16.2936 27.9277L16.649 28.0914C18.023 28.724 18.7099 29.0402 19.1671 28.6934C19.6241 28.3463 19.5483 27.566 19.3972 26.005L19.358 25.6013C19.3151 25.1576 19.2936 24.9359 19.3574 24.7303C19.4215 24.5246 19.5637 24.3584 19.8478 24.0261L20.1068 23.7234C21.1071 22.5534 21.6075 21.9685 21.4328 21.4071C21.2582 20.8457 20.5244 20.6798 19.0569 20.3477L18.6773 20.2618C18.2603 20.1676 18.0518 20.1202 17.8844 19.9931C17.7169 19.8661 17.6095 19.6736 17.395 19.2883L17.1995 18.9375C16.4438 17.5818 16.0659 16.9041 15.5009 16.9041Z" fill="url(#paint0_linear_197_963)"></path><path d="M13.5122 0H17.4897C21.2396 0 23.1146 -1.18537e-07 24.2795 1.16497C25.4445 2.32992 25.4445 4.2049 25.4445 7.95486V7.9906L19.7848 4.90449C17.1142 3.44831 13.8869 3.44829 11.2163 4.90449L5.55737 7.99016V7.95486C5.55737 4.2049 5.55737 2.32992 6.72234 1.16497C7.88729 -1.18537e-07 9.76227 0 13.5122 0Z" fill="url(#paint1_linear_197_963)"></path><defs><linearGradient id="paint0_linear_197_963" x1="15.5009" y1="-1.1999e-05" x2="15.5009" y2="38.945" gradientUnits="userSpaceOnUse"><stop offset="10%" stop-color="#9999FF"></stop><stop offset="1" stop-color="#2B2BFF"></stop></linearGradient><linearGradient id="paint1_linear_197_963" x1="15.501" y1="0" x2="15.501" y2="38.945" gradientUnits="userSpaceOnUse"><stop offset="10%" stop-color="#9999FF"></stop><stop offset="1" stop-color="#2B2BFF"></stop></linearGradient></defs></svg>