<?xml version="1.0" encoding="utf-8"?>
<!-- Generator: Adobe Illustrator 27.5.0, SVG Export Plug-In . SVG Version: 6.00 Build 0)  -->
<svg version="1.1" xmlns="http://www.w3.org/2000/svg" xmlns:xlink="http://www.w3.org/1999/xlink" x="0px" y="0px"
	 viewBox="0 0 500 500" style="enable-background:new 0 0 500 500;" xml:space="preserve">
<g id="BACKGROUND">
	<g>
		<path style="fill:#D3F2FE;" d="M452.465,96.355h-69.01c-1.157,0-2.095,0.938-2.095,2.095v50.094v1.787v8.324
			c0,1.819,2.159,2.774,3.505,1.55l10.254-9.329c0.386-0.351,0.888-0.545,1.41-0.545h55.937c1.157,0,2.095-0.938,2.095-2.095V98.45
			C454.56,97.293,453.622,96.355,452.465,96.355z"/>
		<path style="fill:#FFFFFF;stroke:#D3F2FE;stroke-miterlimit:10;" d="M358.951,54.955h58.257c0.977,0,1.768,0.792,1.768,1.769
			v42.288v1.508v7.027c0,1.536-1.823,2.342-2.959,1.308l-8.656-7.875c-0.326-0.296-0.75-0.46-1.19-0.46h-47.221
			c-0.977,0-1.768-0.792-1.768-1.769V56.724C357.183,55.747,357.975,54.955,358.951,54.955z"/>
	</g>
	<line style="fill:none;stroke:#59B3EB;stroke-miterlimit:10;" x1="51.48" y1="411.96" x2="448.2" y2="411.96"/>
	<g>
		<path style="fill:#AFD7FE;" d="M81.703,99.249l-1.991-1.752c-0.118-0.104-0.163-0.266-0.116-0.416
			c0.119-0.387,0.223-0.782,0.305-1.188c0.154-0.767,0.235-1.531,0.25-2.286c0.003-0.169,0.108-0.315,0.268-0.369l2.114-0.713
			c0.863-0.291,1.326-1.227,1.035-2.09l-1.69-5.009c-0.291-0.863-1.227-1.326-2.09-1.035l-2.304,0.777
			c-0.154,0.052-0.321,0.004-0.426-0.119c-0.821-0.954-1.789-1.783-2.872-2.466c-0.14-0.088-0.213-0.251-0.18-0.413l0.374-1.86
			c0.179-0.893-0.399-1.762-1.292-1.942l-5.183-1.041c-0.893-0.179-1.762,0.399-1.942,1.292l-0.373,1.86
			c-0.033,0.163-0.163,0.285-0.326,0.312c-1.438,0.242-2.808,0.725-4.061,1.419c-0.148,0.082-0.329,0.065-0.456-0.047l-1.022-0.9
			c-0.684-0.602-1.726-0.535-2.327,0.148l-3.493,3.968c-0.602,0.684-0.535,1.726,0.148,2.327l1.167,1.027
			c0.123,0.108,0.166,0.28,0.111,0.434c-0.194,0.547-0.36,1.109-0.478,1.694c-0.189,0.942-0.257,1.879-0.235,2.801
			c0.004,0.176-0.103,0.333-0.269,0.389l-1.126,0.38c-0.863,0.291-1.326,1.227-1.035,2.09l1.69,5.009
			c0.291,0.863,1.227,1.327,2.09,1.035l1.684-0.568c0.148-0.05,0.31-0.007,0.417,0.107c0.97,1.037,2.115,1.915,3.405,2.587
			c0.158,0.082,0.245,0.256,0.21,0.431l-0.306,1.524c-0.179,0.893,0.399,1.762,1.292,1.942l5.183,1.041
			c0.893,0.179,1.762-0.399,1.941-1.292l0.46-2.29c0.03-0.15,0.144-0.266,0.292-0.304c1.227-0.315,2.393-0.806,3.463-1.457
			c0.149-0.091,0.338-0.077,0.469,0.039l1.555,1.369c0.684,0.602,1.726,0.535,2.327-0.148l3.493-3.968
			C82.453,100.893,82.387,99.851,81.703,99.249z M66.645,99.615c-3.389-0.681-5.585-3.98-4.904-7.369
			c0.681-3.389,3.98-5.585,7.369-4.904c3.389,0.681,5.585,3.98,4.905,7.369C73.333,98.1,70.034,100.296,66.645,99.615z"/>
		<path style="fill:#AFD7FE;" d="M116.034,143.741L112.92,141c-0.185-0.163-0.254-0.416-0.182-0.651
			c0.186-0.606,0.349-1.223,0.477-1.858c0.241-1.199,0.368-2.395,0.391-3.576c0.005-0.264,0.169-0.493,0.419-0.578l3.307-1.116
			c1.35-0.455,2.075-1.919,1.619-3.269l-2.643-7.834c-0.455-1.35-1.919-2.075-3.269-1.619l-3.604,1.216
			c-0.241,0.081-0.501,0.006-0.667-0.187c-1.284-1.492-2.799-2.79-4.493-3.857c-0.219-0.138-0.333-0.392-0.282-0.646l0.584-2.909
			c0.281-1.397-0.624-2.756-2.021-3.037l-8.107-1.628c-1.397-0.281-2.756,0.624-3.037,2.021l-0.584,2.909
			c-0.051,0.254-0.254,0.445-0.51,0.488c-2.249,0.378-4.392,1.135-6.352,2.22c-0.231,0.128-0.515,0.101-0.713-0.073l-1.599-1.407
			c-1.069-0.941-2.699-0.837-3.641,0.232l-5.463,6.206c-0.941,1.069-0.838,2.699,0.232,3.641l1.825,1.606
			c0.193,0.17,0.26,0.437,0.174,0.679c-0.303,0.855-0.563,1.734-0.747,2.649c-0.296,1.474-0.402,2.939-0.367,4.382
			c0.007,0.275-0.161,0.52-0.422,0.608l-1.76,0.594c-1.35,0.456-2.075,1.919-1.619,3.269l2.643,7.835
			c0.455,1.35,1.919,2.075,3.269,1.619l2.634-0.889c0.232-0.078,0.484-0.011,0.652,0.167c1.517,1.621,3.309,2.995,5.327,4.046
			c0.247,0.129,0.383,0.4,0.328,0.674l-0.479,2.384c-0.281,1.397,0.624,2.756,2.021,3.037l8.106,1.628
			c1.397,0.281,2.756-0.624,3.037-2.021l0.719-3.582c0.047-0.234,0.225-0.417,0.456-0.476c1.919-0.492,3.743-1.261,5.417-2.279
			c0.234-0.142,0.528-0.12,0.734,0.06l2.432,2.141c1.069,0.941,2.699,0.838,3.64-0.232l5.463-6.206
			C117.207,146.312,117.103,144.682,116.034,143.741z M92.481,144.313c-5.301-1.065-8.736-6.225-7.671-11.527
			c1.065-5.301,6.225-8.736,11.527-7.671c5.301,1.065,8.736,6.225,7.671,11.527C102.943,141.943,97.782,145.378,92.481,144.313z"/>
	</g>
	<path style="fill:none;stroke:#D3F2FE;stroke-miterlimit:10;" d="M49.198,239.095c0.148,0,9.89,0,9.89,0h22.589h8.571
		c5.363,0,9.711-4.348,9.711-9.711c0-5.363-4.348-9.711-9.711-9.711c-0.08,0-0.158,0.01-0.238,0.012
		c-1.479-9.509-9.702-16.786-19.625-16.786c-7.808,0-14.56,4.507-17.806,11.06c-1.079-0.295-2.209-0.466-3.381-0.466
		c-7.07,0-12.801,5.731-12.801,12.801S42.128,239.095,49.198,239.095z"/>
	<path style="fill:none;stroke:#D3F2FE;stroke-miterlimit:10;" d="M391.787,345.45c0.149,0,9.891,0,9.891,0h22.589h8.571
		c5.363,0,9.711-4.348,9.711-9.711c0-5.363-4.348-9.711-9.711-9.711c-0.08,0-0.158,0.01-0.238,0.012
		c-1.479-9.509-9.702-16.786-19.625-16.786c-7.808,0-14.561,4.507-17.806,11.06c-1.079-0.295-2.209-0.466-3.381-0.466
		c-7.07,0-12.801,5.731-12.801,12.801C378.986,339.719,384.717,345.45,391.787,345.45z"/>
	<path style="fill:#D3F2FE;" d="M146.228,53.765c0.105,0,6.978,0,6.978,0h15.937h6.047c3.784,0,6.851-3.067,6.851-6.851
		s-3.067-6.851-6.851-6.851c-0.057,0-0.112,0.007-0.168,0.008c-1.044-6.708-6.844-11.842-13.845-11.842
		c-5.509,0-10.272,3.18-12.562,7.803c-0.761-0.208-1.558-0.329-2.385-0.329c-4.988,0-9.031,4.043-9.031,9.031
		S141.24,53.765,146.228,53.765z"/>
	<path style="fill:#AFD7FE;" d="M418.816,228.002h-2.303v-4.628c0-1.551-0.301-3.03-0.843-4.378l0.004-0.002
		c-0.136-0.34-0.292-0.666-0.456-0.985c-0.01-0.02-0.021-0.039-0.031-0.058c-1.176-2.257-3.026-3.99-5.225-4.974
		c-0.031-0.014-0.062-0.028-0.094-0.042c-0.613-0.267-1.251-0.478-1.909-0.624c-0.074-0.017-0.15-0.029-0.224-0.044
		c-0.249-0.049-0.501-0.09-0.755-0.121c-0.092-0.011-0.184-0.023-0.277-0.032c-0.328-0.031-0.658-0.053-0.991-0.053h-2.565
		c-0.334,0-0.664,0.021-0.991,0.053c-0.093,0.009-0.185,0.021-0.277,0.032c-0.254,0.031-0.506,0.072-0.755,0.121
		c-0.075,0.015-0.15,0.027-0.224,0.044c-0.659,0.146-1.296,0.356-1.909,0.624c-0.031,0.014-0.063,0.028-0.094,0.042
		c-2.199,0.984-4.049,2.717-5.225,4.974c-0.01,0.019-0.021,0.039-0.031,0.058c-0.164,0.32-0.32,0.646-0.456,0.985l0.004,0.002
		c-0.542,1.347-0.843,2.826-0.843,4.378v4.628h-2.304c-2.209,0-4,1.791-4,4v25.019c0,2.209,1.791,4,4,4h28.776c2.209,0,4-1.791,4-4
		v-25.019C422.816,229.793,421.026,228.002,418.816,228.002z M395.249,223.373c0-1.211,0.246-2.359,0.681-3.4
		c0.12-0.289,0.258-0.565,0.405-0.834c0.059-0.106,0.118-0.212,0.18-0.315c0.16-0.264,0.33-0.519,0.514-0.76
		c0.079-0.103,0.166-0.199,0.249-0.298c0.144-0.171,0.294-0.336,0.45-0.494c0.099-0.1,0.199-0.198,0.303-0.293
		c0.226-0.205,0.459-0.401,0.705-0.577c0.08-0.058,0.166-0.106,0.248-0.16c0.207-0.137,0.419-0.265,0.638-0.382
		c0.096-0.051,0.193-0.102,0.291-0.149c0.296-0.142,0.599-0.271,0.911-0.373c0.04-0.013,0.082-0.021,0.122-0.033
		c0.291-0.09,0.589-0.159,0.89-0.213c0.088-0.016,0.176-0.031,0.266-0.043c0.344-0.049,0.691-0.082,1.044-0.082h2.565
		c0.353,0,0.701,0.034,1.044,0.082c0.089,0.013,0.177,0.028,0.266,0.043c0.302,0.054,0.599,0.123,0.89,0.213
		c0.04,0.012,0.082,0.02,0.122,0.033c0.313,0.102,0.615,0.231,0.911,0.373c0.098,0.047,0.195,0.098,0.291,0.149
		c0.219,0.116,0.431,0.244,0.638,0.382c0.082,0.054,0.168,0.103,0.248,0.16c0.246,0.176,0.479,0.372,0.705,0.577
		c0.104,0.094,0.203,0.193,0.302,0.293c0.156,0.157,0.306,0.323,0.45,0.494c0.083,0.099,0.17,0.195,0.249,0.298
		c0.184,0.241,0.355,0.496,0.514,0.76c0.063,0.103,0.122,0.209,0.18,0.315c0.147,0.269,0.285,0.545,0.405,0.834
		c0.434,1.041,0.681,2.19,0.681,3.4v4.628h-18.359V223.373z M406.088,246.549v3.088c0,0.772-0.626,1.399-1.399,1.399
		c-0.772,0-1.398-0.626-1.398-1.399v-3.089c-1.01-0.513-1.709-1.551-1.709-2.761c0-1.717,1.392-3.108,3.108-3.108
		c1.717,0,3.108,1.392,3.108,3.108C407.798,244.998,407.098,246.036,406.088,246.549z"/>
</g>
<g id="OBJECTS">
	<g>
		<g>
			<path style="fill:#2F7D54;" d="M84.808,376.71c0,0,17.008-37.816,13.638-53.019C98.446,323.691,85.125,351.872,84.808,376.71z"/>
			<path style="fill:none;stroke:#2F7D54;stroke-miterlimit:10;" d="M88.694,364.32c0,0-7.957,19.049-10.128,35.205"/>
			<path style="fill:none;stroke:#2F7D54;stroke-miterlimit:10;" d="M74.869,358.453c0,0,8.922,19.773,8.199,40.992"/>
			<line style="fill:none;stroke:#2F7D54;stroke-miterlimit:10;" x1="82.907" y1="353.228" x2="81.46" y2="400.007"/>
			<path style="fill:#2F7D54;" d="M82.907,358.533c0,0,2.411-59.077-10.127-77.403C72.78,281.13,70.127,325.498,82.907,358.533z"/>
			<path style="fill:#84B063;" d="M83.077,367.234c0,0,14.245-57.385,5.648-77.858C88.725,289.376,77.202,332.304,83.077,367.234z"
				/>
			<path style="fill:#84B063;" d="M79.718,375.5c0,0-8.175-58.558-23.785-74.351C55.934,301.149,61.246,345.278,79.718,375.5z"/>
		</g>
		<polygon style="fill:#AFD7FE;" points="71.73,383.479 91.649,383.479 89.336,411.45 74.043,411.45 		"/>
	</g>
	<g>
		<path style="fill:#E2E2E2;" d="M155.294,411.503c0,2.862,40.6,5.182,90.683,5.182c50.083,0,90.683-2.32,90.683-5.182
			c0-2.862-40.6-5.182-90.683-5.182C195.894,406.32,155.294,408.64,155.294,411.503z"/>
		<g>
			<g>
				<g>
					<g>
						<path style="fill:#5799E6;" d="M321.745,412.271H168.46c-3.919,0-7.096-3.177-7.096-7.096V92.656
							c0-3.919,3.177-7.096,7.096-7.096h153.285c3.919,0,7.096,3.177,7.096,7.096v312.518
							C328.841,409.094,325.664,412.271,321.745,412.271z"/>
						<path style="fill:#FFFFFF;" d="M313.434,91.087h-46.613c-3.505,0-6.844,1.905-8.408,5.127
							c-2.283,4.701-7.007,7.931-12.47,7.931c-5.463,0-10.187-3.229-12.47-7.931c-1.565-3.222-4.904-5.127-8.408-5.127h-48.293
							c-5.661,0-10.25,4.714-10.25,10.529v276.806c0,5.815,4.589,10.529,10.25,10.529h136.664c5.661,0,10.25-4.714,10.25-10.529
							V101.616C323.685,95.801,319.096,91.087,313.434,91.087z"/>
						<path style="fill:#FFFFFF;" d="M265.683,404.246h-40.342c-2.596,0-4.701-2.105-4.701-4.701l0,0
							c0-2.596,2.105-4.701,4.701-4.701h40.342c2.596,0,4.701,2.105,4.701,4.701l0,0
							C270.384,402.141,268.279,404.246,265.683,404.246z"/>
						<g style="opacity:0.12;">
							<path style="fill:#5799E6;" d="M171.922,94.083h48.293c3.505,0,6.844,1.905,8.408,5.127c2.283,4.701,7.007,7.931,12.47,7.931
								c3.65,0,6.951-1.464,9.434-3.824c-1.44,0.517-2.974,0.827-4.585,0.827c-5.463,0-10.187-3.229-12.47-7.931
								c-1.565-3.222-4.904-5.127-8.408-5.127h-48.293c-2.963,0-5.624,1.299-7.495,3.363
								C170.121,94.218,171.005,94.083,171.922,94.083z"/>
							<path style="fill:#5799E6;" d="M313.434,91.087h-46.613c-2.771,0-5.424,1.206-7.193,3.297
								c0.761-0.19,1.547-0.301,2.344-0.301h46.614c5.661,0,10.25,4.714,10.25,10.529v276.805c0,2.772-1.051,5.286-2.755,7.166
								c4.376-1.2,7.604-5.289,7.604-10.162V101.616C323.685,95.8,319.096,91.087,313.434,91.087z"/>
						</g>
					</g>
				</g>
			</g>
			<path style="fill:#FFFFFF;" d="M249.519,94.083c0,1.975-1.601,3.576-3.576,3.576c-1.975,0-3.576-1.601-3.576-3.576
				c0-1.975,1.601-3.576,3.576-3.576C247.918,90.507,249.519,92.108,249.519,94.083z"/>
		</g>
		<g>
			<g>
				
					<rect x="208.921" y="140.812" transform="matrix(-1 -1.224647e-16 1.224647e-16 -1 506.179 290.1026)" style="fill:#AFD7FE;" width="88.336" height="8.478"/>
				
					<rect x="208.921" y="157.163" transform="matrix(-1 -1.224647e-16 1.224647e-16 -1 506.179 322.8033)" style="fill:#AFD7FE;" width="88.336" height="8.478"/>
				
					<rect x="208.921" y="173.513" transform="matrix(-1 -1.224647e-16 1.224647e-16 -1 506.179 355.5039)" style="fill:#AFD7FE;" width="88.336" height="8.478"/>
			</g>
			<g>
				<path style="fill:#AFD7FE;" d="M182.832,127.307c0-0.338,0.091-0.621,0.272-0.851c0.181-0.229,0.44-0.452,0.778-0.67
					l11.948-8.074c0.096-0.048,0.175-0.078,0.235-0.091c0.06-0.012,0.114-0.018,0.163-0.018c0.217,0,0.398,0.072,0.543,0.217
					c0.145,0.145,0.217,0.326,0.217,0.543v1.629c0,0.362-0.127,0.676-0.38,0.941c-0.253,0.266-0.513,0.483-0.779,0.652l-9.559,6.481
					l9.559,6.481c0.265,0.169,0.525,0.386,0.779,0.652c0.253,0.266,0.38,0.579,0.38,0.941v1.629c0,0.217-0.072,0.398-0.217,0.543
					c-0.145,0.145-0.326,0.217-0.543,0.217c-0.049,0-0.103-0.006-0.163-0.018c-0.061-0.012-0.139-0.042-0.235-0.09l-11.948-8.074
					c-0.338-0.217-0.597-0.44-0.778-0.67c-0.181-0.229-0.272-0.513-0.272-0.851V127.307z"/>
			</g>
		</g>
	</g>
	<g>
		<g>
			
				<rect x="139.602" y="220.126" transform="matrix(-1 -1.224647e-16 1.224647e-16 -1 366.8843 513.1179)" style="fill:#FFFFFF;stroke:#59B3EB;stroke-miterlimit:10;" width="87.68" height="72.866"/>
			
				<rect x="148.58" y="235.59" transform="matrix(-1 -1.224647e-16 1.224647e-16 -1 365.9439 477.7814)" style="fill:#AFD7FE;" width="68.783" height="6.601"/>
			
				<rect x="148.58" y="248.321" transform="matrix(-1 -1.224647e-16 1.224647e-16 -1 365.9439 503.2438)" style="fill:#AFD7FE;" width="68.783" height="6.601"/>
			
				<rect x="160.569" y="261.052" transform="matrix(-1 -1.224647e-16 1.224647e-16 -1 377.9323 528.7062)" style="fill:#AFD7FE;" width="56.795" height="6.601"/>
			
				<rect x="160.569" y="273.784" transform="matrix(-1 -1.224647e-16 1.224647e-16 -1 377.9323 554.1686)" style="fill:#AFD7FE;" width="56.795" height="6.601"/>
		</g>
		<path style="fill:#E2E2E2;" d="M109.248,449.141c0,2.984,17.057,5.404,38.099,5.404c21.042,0,38.099-2.419,38.099-5.404
			c0-2.984-17.057-5.404-38.099-5.404C126.305,443.737,109.248,446.156,109.248,449.141z"/>
		<g>
			<path style="fill:#FFC0AD;" d="M120.649,429.392l-1.906,11.335l8.643,3.764l4.684-14.833
				C128.473,429.919,123.049,429.769,120.649,429.392z"/>
		</g>
		<g>
			<path style="fill:#2A3141;" d="M170.934,431.326l6.821-58.576l-0.024-85.479l-39.833-4.612l22.158,89.467l-0.474,58.694
				C162.325,431.367,166.186,431.769,170.934,431.326z"/>
			<polyline style="fill:#FFC0AD;" points="159.581,430.819 160.063,442.651 168.427,444.38 170.934,431.326 			"/>
		</g>
		<g>
			<path style="fill:#2A3141;" d="M157.859,289.206l-23.203,1.665l-1.086,13.737l-4.091,70.99l-8.831,53.795
				c2.401,0.376,7.824,0.527,11.422,0.266l16.617-56.097L157.859,289.206z"/>
		</g>
		<path style="fill:#2A3141;" d="M119.092,438.874c0,0,2.662,4.112,9.688,0.515c0,0-0.167,1.087,3.848,5.102
			c0,0,9.591,2.454,12.045,6.468c0,0-14.944,1.896-28.885-0.781C115.788,450.179,116.709,443.07,119.092,438.874z"/>
		<path style="fill:#2A3141;" d="M160.063,440.03c0,0,6.357,3.011,9.257-0.112c0,0,1.45,1.227,4.461,3.903
			c0,0,9.033,2.9,11.487,6.914c0,0-13.271,3.011-27.547,1.45C157.721,452.186,157.68,444.227,160.063,440.03z"/>
		<g>
			<g>
				<g>
					<g>
						<g>
							<path style="fill:#FFC0AD;" d="M127.676,255.882c-2.336,6.062-4.179,11.17-4.948,13.6c-0.289,0.913-0.137,1.907,0.425,2.682
								c4.217,5.811,23.217,17.281,29.897,21.431l4.443-6.874c0,0-20.474-15.977-21.07-18.55c0,0,1.035-5.181,3.178-9.368"/>
							<path style="fill:#ED6A66;" d="M142.295,261.57c2.647-5.169,4.646-13.437,7.247-21.915c1.32-4.301,0.477-9.138-1.639-12.219
								c-2.331-3.394-4.951-1.519-4.951-1.519c-4.744,5.173-11.877,21.146-15.276,29.966"/>
						</g>
					</g>
				</g>
			</g>
		</g>
		<g>
			<g>
				<g>
					<g>
						<g>
							<path style="fill:#FFC0AD;" d="M180.137,261.257c1.363,6.055,4.031,12.961,4.702,15.296c0.252,0.877,0.87,1.576,1.681,1.877
								c6.077,2.259,25.964,0.859,33.014,0.46l-0.22-7.85c0,0-23.044-2.05-24.795-3.749c0,0-0.814-6.037-1.364-10.509"/>
							<path style="fill:#ED6A66;" d="M193.855,256.963c-0.678-5.522-1.951-10.968-4.349-19.071
								c-1.217-4.11-7.445-10.706-11.502-11.459c-3.66-0.679-1.709,4.083-1.709,4.083c1.125,7.972,1.859,21.931,3.843,30.741"/>
						</g>
					</g>
				</g>
			</g>
		</g>
		<path style="fill:#FFC0AD;" d="M179.841,200.876l2.598,4.408c0.197,0.422,0.02,0.925-0.398,1.131l-1.993,0.984L179.841,200.876z"
			/>
		<path style="fill:#FFC0AD;" d="M173.485,225.485c-0.059-0.023-0.118-0.047-0.176-0.07c-1.67-0.676-2.319-13.358-0.864-16.666
			l-13.561-17.923c0,0,0.984,12.591-0.536,24.721c-0.495,3.952-3.821,7.349-5.226,8.048"/>
		<path style="fill:#FFC0AD;" d="M180.105,215.004c-0.007,0.784-0.517,1.506-1.279,1.693c-8.555,2.094-22.685-10.967-22.697-19.969
			c-0.007-4.516,4.68-6.642,9.222-7.752c7.03-1.719,12.347-2.707,14.746,10.08C180.121,199.184,180.105,215.004,180.105,215.004z"/>
		<path style="fill:#2A3141;" d="M178.168,192.46l0.731-0.712c0.877-0.854,0.806-2.268-0.124-3.064
			c-11.624-9.952-25.442,2.396-24.623,7.553c2.332,14.681,4.573,16.84,4.573,16.84s6.076,4.833,5.84-7.754
			c5.512,3.239,6.018-9.508,6.018-9.508C170.511,193.842,175.459,193.51,178.168,192.46z"/>
		<g>
			<path style="fill:#FFC0AD;" d="M163.574,206.549c0.909,1.643,2.671,2.454,3.934,1.813c1.264-0.641,1.552-2.492,0.643-4.135
				c-0.909-1.643-2.67-2.454-3.934-1.813C162.953,203.056,162.665,204.907,163.574,206.549z"/>
		</g>
		<path style="fill:#ED6A66;" d="M184.588,241.354c-0.755-7.302-3.233-13.806-4.787-14.237c0,0-5.717-3.068-7.464-3.61
			c0,0-13.306,0.878-16.227-2.628c0,0-12.825,3.925-13.158,5.037c-5.016,16.73-3.773,21.039-3.773,21.039l-1.844,22.807
			l-3.553,25.62c5.305,2.462,32.522,5.725,44.707,3.328c0,0-1.253-23.853-1.075-27.798
			C177.414,270.912,185.249,247.74,184.588,241.354z"/>
		<path style="fill:#FFC0AD;" d="M216.768,271.573c0,0,1.359-4.337,3.183-5.205c1.824-0.868,5.116-2.963,5.971-2.209
			c0.855,0.754-1.64,3.471-4.642,4.07L216.768,271.573z"/>
		<path style="fill:#FFC0AD;" d="M219.189,268.464c0,0,7.642-1.727,8.908-1.727c1.867,0,1.909,1.848,1.327,2.586
			c-0.431,0.547,1.345,1.077,0.346,2.907c-0.624,1.143,0.335,1.078,0.088,2.172c-0.194,0.859-1.623,1.231-1.444,2.103
			c0.329,1.605-1.32,1.713-2.338,2.293c-1.018,0.58-5.357,1.317-9.328-0.604C211.567,275.688,219.189,268.464,219.189,268.464z"/>
		<path style="fill:#2A3141;" d="M168.093,203.264c0,0,4.935,4.098,7.528,4.098c2.593,0,4.427,0.036,4.427,0.036
			s1.846,9.332,1.26,9.75s-9.368,2.258-13.467-2.426C163.743,210.039,168.009,204.77,168.093,203.264z"/>
		<line style="fill:none;stroke:#2A3141;stroke-miterlimit:10;" x1="137.981" y1="259.64" x2="138.483" y2="241.405"/>
		<line style="fill:none;stroke:#2A3141;stroke-miterlimit:10;" x1="181.308" y1="246.926" x2="180.36" y2="260.811"/>
		<line style="fill:none;stroke:#808080;stroke-miterlimit:10;" x1="152.256" y1="340.328" x2="146.457" y2="322.26"/>
		<path style="fill:#808080;" d="M170.116,434.441l-9.924-0.503c-0.96-0.048-1.698-0.866-1.65-1.826l0.125-2.465
			c0.049-0.96,0.866-1.698,1.826-1.65l9.924,0.503c0.96,0.049,1.698,0.866,1.65,1.826l-0.125,2.465
			C171.893,433.751,171.076,434.49,170.116,434.441z"/>
		<path style="fill:#808080;" d="M130.963,433.312l-9.867-1.178c-0.954-0.114-1.635-0.98-1.521-1.934l0.293-2.451
			c0.114-0.954,0.98-1.635,1.934-1.521l9.866,1.178c0.954,0.114,1.635,0.98,1.521,1.934l-0.293,2.451
			C132.783,432.745,131.917,433.426,130.963,433.312z"/>
	</g>
	<g>
		<g>
			<polygon style="fill:#59B3EB;" points="317.228,424.121 317.228,431.195 368.993,434.068 414.201,432.607 414.201,425.675 			"/>
			<polygon style="fill:#5799E6;" points="317.228,431.195 368.993,434.068 368.993,427.136 345.769,424.578 317.228,424.121 			"/>
			<polygon style="fill:#AFD7FE;" points="414.201,425.675 368.993,427.136 317.228,424.263 362.437,422.802 			"/>
		</g>
		<g>
			<polygon style="fill:#84B063;" points="335.628,416.647 335.628,423.721 387.392,426.593 432.6,425.132 432.6,418.2 			"/>
			<polygon style="fill:#2F7D54;" points="335.628,423.721 387.392,426.593 387.392,419.661 364.168,417.104 335.628,416.647 			"/>
			<polygon style="fill:#A8D18A;" points="432.6,418.2 387.392,419.661 335.628,416.789 380.836,415.327 			"/>
		</g>
		<g>
			<polygon style="fill:#59B3EB;" points="317.228,407.878 317.228,414.952 368.993,417.825 414.201,416.364 414.201,409.432 			"/>
			<polygon style="fill:#5799E6;" points="317.228,414.952 368.993,417.825 368.993,410.893 345.769,408.336 317.228,407.878 			"/>
			<polygon style="fill:#AFD7FE;" points="414.201,409.432 368.993,410.893 317.228,408.02 362.437,406.559 			"/>
		</g>
		<g>
			<polygon style="fill:#84B063;" points="478.025,431.372 457.997,385.142 407.975,385.142 405.1,389.166 425.128,435.397 
				475.15,435.397 			"/>
			<polygon style="fill:#A8D18A;" points="478.025,431.372 428.003,431.372 407.975,385.142 457.997,385.142 			"/>
			
				<text transform="matrix(0.8829 0 0.4695 0.8829 428.168 413.932)" style="fill:#FFFFFF; font-family:'Rubik-Bold'; font-size:21.0566px;">C++</text>
			<polygon style="fill:#2F7D54;" points="428.003,431.372 425.128,435.397 405.1,389.166 407.975,385.142 			"/>
		</g>
		<g>
			<polygon style="fill:#E2E2E2;" points="403.148,446.303 399.73,453.144 352.586,434.205 359.594,418.374 			"/>
			<polygon style="fill:#ED6A66;" points="443.396,423.017 402.804,393.172 359.594,418.374 359.138,423.299 399.73,453.144 
				442.94,427.942 			"/>
			<polygon style="fill:#FF957A;" points="443.396,423.017 400.186,448.219 359.594,418.374 402.804,393.172 			"/>
			
				<text transform="matrix(0.7627 -0.4448 0.8504 0.5262 397.0594 431.6933)" style="fill:#FFFFFF; font-family:'Rubik-Bold'; font-size:21.0566px;">JS</text>
			<polygon style="fill:#CF5959;" points="400.186,448.219 399.73,453.144 359.138,423.299 359.594,418.374 			"/>
		</g>
	</g>
	<g>
		<g>
			<path style="fill:#F7BCB2;" d="M307.477,254.638c0,0,31.305,6.424,32.147,7.772c0.842,1.347-11.83,7.373-11.83,7.373
				s-19.056-2.576-25.158-6.841C296.534,258.678,307.477,254.638,307.477,254.638z"/>
			<path style="fill:#F7BCB2;" d="M311.135,256.773c-2.555-6.137-9.363-22.221-9.363-22.221l-4.796,0.428
				c0,0,0.834,22.341,3.936,26.572C304.014,265.782,313.048,261.368,311.135,256.773z"/>
		</g>
		<path style="fill:#E2E2E2;" d="M342.141,471.774c0,2.862-16.358,5.182-36.538,5.182c-20.18,0-36.538-2.32-36.538-5.182
			c0-2.862,16.358-5.182,36.538-5.182C325.783,466.592,342.141,468.912,342.141,471.774z"/>
		<g>
			<path style="fill:#2A3141;" d="M326.523,451.813l-11.029-60.95l-6.38-75.394l31.142-5.221l-7.893,78.642l4.971,61.556
				C334.755,451.182,331.096,451.868,326.523,451.813z"/>
			<polyline style="fill:#FFC0AD;" points="337.335,450.446 337.795,461.793 329.934,464.096 326.523,451.813 			"/>
		</g>
		<path style="fill:#2A3141;" d="M337.591,459.288c0,0-5.842,3.373-8.857,0.613c0,0-1.29,1.286-3.96,4.078
			c0,0-8.409,3.474-10.442,7.503c0,0,12.92,1.846,26.444-0.757C340.775,470.725,340.195,463.114,337.591,459.288z"/>
		<path style="fill:#808080;" d="M327.617,454.718l9.305-1.234c0.953-0.126,1.622-1.001,1.496-1.953l-0.292-2.205
			c-0.126-0.953-1.001-1.623-1.954-1.496l-9.305,1.234c-0.953,0.126-1.623,1.001-1.496,1.953l0.292,2.205
			C325.79,454.175,326.665,454.845,327.617,454.718z"/>
		<g>
			<g>
				<path style="fill:#2A3141;" d="M302.857,315.326l21.357,5.576l-0.743,4.347c-1.555,9.102,6.478,6.075,3.132,14.682l-28.92,48.72
					l1.671,71.096c-2.469-0.644-7.753-2.773-11.106-4.532l-9.065-68.245L302.857,315.326z"/>
			</g>
			<g>
				<path style="fill:#FFC0AD;" d="M299.286,451.773l1.022,12.024l-9.367,3.198l-3.63-15.922
					C291.054,451.654,296.742,451.961,299.286,451.773z"/>
			</g>
			<path style="fill:#2A3141;" d="M300.102,461.828c0,0-3.138,4.074-10.182-0.291c0,0,0.082,1.152-4.463,5.009
				c0,0-10.246,1.745-13.158,5.736c0,0,15.475,3.265,30.292,1.659C302.591,473.941,302.236,466.423,300.102,461.828z"/>
			<path style="fill:#808080;" d="M288.071,454.994l10.599-0.394c0.96-0.036,1.71-0.843,1.674-1.803l-0.103-2.763
				c-0.036-0.96-0.843-1.71-1.803-1.674l-10.599,0.394c-0.96,0.036-1.71,0.843-1.674,1.803l0.103,2.763
				C286.303,454.28,287.11,455.03,288.071,454.994z"/>
		</g>
		<g>
			<path style="opacity:0.3;fill:#947FAD;" d="M300.593,317.612c0,0,24.464,10.653,34.087-7.412L300.593,317.612z"/>
			<path style="fill:#F7BCB2;" d="M328.863,261.466c0,0-1.118-10.116-0.643-10.979c0.474-0.862,7.472-8.344,7.204-14.599
				c-0.267-6.255-6.956-12.107-15.169-10.523c-8.067,1.557-10.062,6.005-10.435,10.371c-0.105,1.231,0.917,2.829,0.249,6.198
				c-1.08,5.455,0.648,7.561,2.89,12.847c0.167,0.395,0.663,0.545,1.089,0.596c1.378,0.164,3.965-0.021,5.388-1.39l-1.295,5.404
				C318.141,259.392,324.007,262.969,328.863,261.466z"/>
			<path style="fill:#2A3141;" d="M311.96,231.511c0,0,2.802,6.511,8.535,10.738c0,0,2.914-2.857,4.023-0.088
				c1.45,3.621-3.495,5.338-3.495,5.338l7.031,3.346c0,0,7.611-6.491,7.961-12.835c0.349-6.343-3.432-13.059-11.373-14.416
				c-8.98-1.535-17.218,5.675-14.669,10.931C309.973,234.526,310.016,233.186,311.96,231.511z"/>
			<path style="fill:#F7BCB2;" d="M311.078,239.264c0,0-2.12,3.311-3.024,4.699c-0.714,1.095,1.808,2.396,2.619,2.241
				C311.484,246.049,311.078,239.264,311.078,239.264z"/>
			<g>
				<path style="fill:#ED6A66;" d="M339.258,262.215c-2.728-2.102-6.477-1.208-10.674-4.365l-10.302-0.067
					c0,0-3.735,2.72-9.799,2.758c-4.609,0.029-6.714,8.728-6.714,8.728c-0.32,1.18,0.355,37.54,0.355,37.54l-1.53,10.802
					c21.486,9.568,39.663-7.365,39.663-7.365l-6.453-11.718l5.22-22.59C340.874,272.407,342.478,264.697,339.258,262.215z"/>
			</g>
		</g>
		<path style="fill:#2A3141;" d="M328.164,228.09c0.547-3.412,3.856-6.418,7.68-6.48c2.524-0.041,5.129,1.204,6.48,3.36
			c2.676,4.269,0.007,11.421-4.56,12.48C333.199,238.508,327.321,233.345,328.164,228.09z"/>
		<line style="fill:none;stroke:#808080;stroke-miterlimit:10;" x1="313.697" y1="361.889" x2="326.064" y2="339.93"/>
		<path style="fill:#2A3141;" d="M340.257,310.248c0,0,3.447,17.442-3.213,30.582L340.257,310.248z"/>
		<g>
			<g>
				<polygon style="fill:#59B3EB;" points="310.73,253.783 285.736,210.036 236.017,215.541 233.603,219.858 258.597,263.604 
					308.315,258.099 				"/>
				<polygon style="fill:#AFD7FE;" points="310.73,253.783 261.011,259.287 236.017,215.541 285.736,210.036 				"/>
				
					<text transform="matrix(0.8776 -0.0972 0.5638 0.8259 259.265 241.881)" style="fill:#FFFFFF; font-family:'Rubik-Bold'; font-size:21.0566px;">PHP</text>
				<polygon style="fill:#5799E6;" points="261.011,259.287 258.597,263.604 233.603,219.858 236.017,215.541 				"/>
			</g>
			<path style="fill:#F7BCB2;" d="M278.124,272.49c0,0,28.918-12.617,30.359-11.949c1.441,0.669-5.069,13.539-5.069,13.539
				s-17.37,8.25-24.81,8.01C271.164,281.85,278.124,272.49,278.124,272.49z"/>
			<g>
				<path style="fill:#F7BCB2;" d="M261.512,255.96c0,0-0.673-4.372-2.22-4.821c-3.338-0.969-4.373-3.163-4.504-2.223
					c-0.274,1.974,1.109,3.196,3.396,3.852L261.512,255.96z"/>
				<path style="fill:#F7BCB2;" d="M259.784,253.061c0,0-5.813-1.852-6.789-1.901c-1.439-0.072-1.554,1.595-1.139,2.283
					c0.308,0.51-1.085,0.921-0.397,2.611c0.43,1.056-0.307,0.961-0.165,1.957c0.111,0.783,1.196,1.173,1.019,1.954
					c-0.326,1.436,0.941,1.597,1.699,2.159c0.758,0.563,4.07,1.394,7.217-0.188C265.335,259.874,259.784,253.061,259.784,253.061z"
					/>
			</g>
			<path style="fill:#F7BCB2;" d="M282.354,272.28c-5.493-3.746-19.98-13.5-19.98-13.5l-3.783,2.978c0,0,12.901,18.259,17.81,20.108
				C281.31,283.716,286.466,275.085,282.354,272.28z"/>
			<path style="fill:#ED6A66;" d="M308.844,260.55c0,0-8.7,0.09-20.46,7.23c0,0,0.84,10.35,1.8,12.51
				C290.184,280.29,323.484,273.27,308.844,260.55z"/>
		</g>
		<path style="fill:#F7BCB2;" d="M301.662,234.184c0,0-1.425-3.983-2.077-5.611c-0.651-1.628-5.834-2.551-7.57-3.527
			c-1.736-0.977-0.081,3.093,3.582,3.989c0,0,1.302,7.95,6.512,6.756"/>
	</g>
	<path style="fill:#E2E2E2;" d="M310.679,238.251"/>
</g>
</svg>
