<?xml version="1.0" encoding="utf-8"?>
<!-- Generator: Adobe Illustrator 27.5.0, SVG Export Plug-In . SVG Version: 6.00 Build 0)  -->
<svg version="1.1" id="Layer_1" xmlns="http://www.w3.org/2000/svg" xmlns:xlink="http://www.w3.org/1999/xlink" x="0px" y="0px"
	 viewBox="0 0 7273.532 3999.685" style="enable-background:new 0 0 7273.532 3999.685;" xml:space="preserve">
<path style="fill:#E7C5AC;" d="M4048.781,1992.187c-22.531-72.215-34.729-146.411-38.59-221.916
	c-3.858-75.444-0.342-151.076,5.894-226.294c3.113-37.549,6.921-75.036,10.902-112.501c3.913-36.827,9.059-73.733,10.814-110.744
	c1.634-34.471-0.807-69.745-14.017-101.972c-2.892-7.056-10.871-12.271-18.362-7.47c-70.254,45.018-78.045,135.072-121.833,199.785
	c-23.376,34.548-56.672,61.926-94.238,79.794c-34.308,16.318-74.938,25.97-112.813,18.954c-11.385-2.109-45.494-54.758-63.44-77.829
	c-5.971-7.676-9.348-17.14-9.053-26.861c0.538-17.753,12.121-24.892,33.611-37.562c42.903-25.295,96.358-22.26,144.047-29.574
	c21.806-3.344,45.014-9.774,59.862-27.273c14.056-16.565,18.506-37.867,20.108-59.003c3.069-40.496,3.583-93.355-27.226-124.345
	c-18.617-18.727-43.576-21.261-68.391-24.71c-11.192-1.555-22.052-3.71-31.629-10.008c-4.721-3.105-9.811-7.647-12.29-13.072
	c35.408-1.287,69.197-14.07,99.985-31.468c18.146-10.254,35.367-22.066,52.217-34.31c15.45-11.226,32.642-22.162,44.984-36.925
	c24.639-29.474,23.802-70.734,11.02-105.198c-14.352-38.695-42.905-69.321-61.88-105.53
	c-39.801-75.953-14.261-165.643-19.612-247.064c-1.313-19.978-4.605-40.421-17.846-56.244
	c-10.988-13.131-27.31-20.619-43.746-24.283c-17.991-4.01-36.693-4.504-55.051-4.72c-20.329-0.24-40.674,0.532-60.917,2.423
	c-79.21,7.401-158.917,31.429-223.071,79.763c-58.169,43.825-104.115,105.825-121.879,177.111
	c-4.284,17.193-6.737,34.811-7.69,52.495c-0.735,13.62-1.292,29.623-8.586,41.627c-9.258,15.235-25.935,3.875-37.275-3.241
	c-17.363-10.896-32.915-24.272-48.703-37.27c-30.12-24.798-62.324-48.558-101.957-54.436c-36.236-5.374-71.414,7.141-92.448,37.84
	c-38.338,55.955-17.6,135.726,18.449,187.043c36.268,51.628,92.191,88.718,154.087,100.811
	c-43.382,99.397-133.163,169.324-217.82,233.219c-47.36,35.745-96.376,70.525-139.638,111.286
	c-24.132,22.737-43.006,51.018-38.605,85.594c4.213,33.102,24.969,61.446,47.189,85.192
	c85.37,91.237,213.316,120.296,316.646,184.652c60.34,37.581,113.14,85.495,167.03,131.486c13.62,11.624,27.325,23.15,41.258,34.399
	c12.7,10.254,25.749,22.787,41.411,28.271c29.838,10.448,52.898-15.776,52.177-44.244c-0.834-32.937-30.08-51.295-50.24-73.1
	c-19.566-21.163-30.673-48.531-35.386-76.698c-10.659-63.703,13.656-125.942,47.829-178.573
	c19.167-29.521,41.43-56.806,63.991-83.763c7.567-9.042,19.224-28.218,32.899-27.499c7.513,0.395,14.051,7.255,19.157,12.048
	c6.126,5.75,116.726,136.474,136.714,169.035c67.895,110.601,111.141,236.848,123.142,366.196
	c5.875,63.32-5.061,139.626,47.193,186.779c45.265,40.847,112.739,44.887,160.673,6.471c22.104-17.715,38.76-43.405,44.554-71.26
	C4069.837,2061.692,4059.39,2026.191,4048.781,1992.187z"/>
<path style="fill:#E7C5AC;" d="M4222.847,3252.903c-9.359-50.881-44.141-92.798-82.205-125.808
	c-20.269-17.577-42.004-33.435-64.089-48.637c-27.306-18.797-54.846-37.262-82.276-55.878
	c-27.164-18.436-53.839-38.228-82.113-54.937c-13.028-7.699-27.071-14.517-41.86-18.022c-16.124-3.822-94.611,36.012-109.07,42.442
	c-28.83,12.821-75.609,35.835-104.936,47.49c-56.961,22.635-68.452,24.3-130.213,26.042c-30.583,0.863-80.426-12.255-113.362-25.277
	c-29.108-11.508-68.52-35.077-100.34-32.936c-58.719,3.95-128.424,83.309-148.666,135.094
	c-19.786,50.616-18.936,109.741,1.957,159.856c2.097,5.029,4.365,9.959,6.811,14.793c1.127,3.273,2.315,6.526,3.583,9.748
	c5.021,12.761,10.557,26.073,20.746,35.686c9.459,8.925,22.917,13.806,35.614,9.16c12.539-4.588,20.554-16.061,24.028-28.587
	c3.705-13.355,1.063-26.582,0.002-40.065c-0.471-5.988-0.661-11.975,0.992-17.795c0.33-1.163,0.726-2.295,1.127-3.435
	c0.068-0.193,0.122-0.35,0.169-0.492c0.102-0.169,0.245-0.426,0.448-0.814c0.536-1.02,1.075-2.031,1.674-3.017
	c0.208-0.343,1.892-2.851,1.712-2.649c1.415-1.845,5.466-5.872,8.333-8.219c-0.715,0.606,2.799-2.002,3.479-2.456
	c2.388-1.594,4.851-3.074,7.354-4.478c17.869-10.02,37.673-16.231,55.051-27.181c19.908-12.544,32.992-31.294,45.067-51.033
	c11.113-18.165,21.516-36.891,39.458-46.88c22.931-12.765,52.305-7.815,77.123-5.257c63.219,6.517,126.145,15.693,188.605,27.429
	c16.056,3.017,32.08,6.202,48.069,9.555c11.729,2.46,23.541,5.011,34.73,9.397c8.901,3.489,18.831,9.532,24.042,17
	c7.058,10.115,8.029,22.696,9.136,34.609c2.324,24.992,8.257,48.5,19.581,70.999c10.585,21.032,25.34,40.273,42.627,56.237
	c17.896,16.527,38.428,29.617,60.927,38.902c10.401,4.292,21.174,7.647,32.211,9.856c12.347,2.471,25.764,4.474,38.362,3.265
	c14.362-1.378,27.371-7.359,34.921-20.106c3.424-5.781,5.327-12.182,6.053-18.747c8.799,7.274,18.242,13.702,28.474,18.542
	c21.517,10.177,47.271,13.852,69.348,3.106c25.613-12.467,27.679-41.873,23.809-66.885c-3.283-21.223-12.205-40.727-24.193-58.501
	c2.001,1.514,3.999,3.033,6.007,4.538c6.166,4.624,12.364,9.204,18.595,13.74c5.756,4.19,11.41,8.809,17.792,12.03
	c11.241,5.673,26.125,9.553,37.272,1.529C4228.796,3285.791,4225.547,3267.583,4222.847,3252.903z"/>
<path style="fill:none;stroke:#000000;stroke-width:8;stroke-miterlimit:10;" d="M81.262,3327.221l282.934,0.992
	c26.187,0.092,43.611-27.083,32.546-50.817c-20.005-42.91-35.308-87.671-33.197-134.414c2.627-58.188,43.418-118.46,98.353-128.646
	c10.758-1.995,16.91-13.493,12.807-23.637c-56.383-139.423-136.781-283.509-135.49-426.134
	c111.106,109.74,169.477,292.333,249.204,431.446c2.115,3.69,7.724,0.971,6.12-2.968
	c-60.793-149.286-175.267-350.583-194.932-447.793c86.57,53.847,182.775,259.719,239.818,427.705c0.862,2.54,4.67,1.421,4.036-1.185
	c-48.136-147.951-87.623-282.397-85.562-351.97c68.762,76.653,104.286,248.916,137.995,345.203
	c11.774,33.63,103.227,47.316,97.598,12.132c-4.509-28.181-28.864-175.665-36.072-208.54
	c-10.263-46.813-14.654-108.215,12.4-176.977c55.836,61.612,73.93,241.215,92.702,362.895c0.597,3.87,6.36,3.249,6.114-0.66
	c-9.101-144.815-54.53-277.079-36.818-420.851c71.281,117.746,81.067,270.371,80.731,405.288
	c-0.022,8.801,11.124,12.654,16.547,5.722c70.804-90.488,132.193-179.056,216.095-224.451
	c-2.049,68.639-82.306,187.089-149.039,267.321c-7.535,9.06-1.042,22.785,10.742,22.708l60.616-0.397
	c26.042-0.17,36.518,33.887,14.653,48.033c-10.702,6.924-23.386,11.998-34.941,13.31c-179.21,20.357-361.151,16.504-539.345-11.367
	c-17.407-2.723-32.908,11.24-31.93,28.832l31.396,564.57c1.569,28.204,4.44,59.346,25.007,78.709
	c15.22,14.329,36.94,18.926,57.546,22.441c99.002,16.885,199.949,22.335,300.193,16.208c50.527-3.088,105.005-10.993,140.924-46.664
	c36.414-36.163,44.355-91.4,48.765-142.53c11.334-131.398,12.265-263.691,2.798-395.236c-0.821-11.401-18.011-10.943-17.999,0.488
	c0.021,21.482-1.104,58.483-1.935,82.792c-0.441,12.908,10.273,23.398,23.171,22.719l153.206,3.658
	c8.667,0.207,17.256-1.691,25.028-5.532l189.276-93.533c10.833-5.353,22.843-7.883,34.914-7.354l830.224,36.388
	c55.814,2.446,85.099,67.415,49.905,110.803c-77.361,95.372-198.601,223.755-302.854,241.808
	c-100.19,17.349-859.622-33.374-939.462-38.773c-5.949-0.402-11.235-4.269-13.026-9.957c-2.193-6.967,1.704-14.828,33.047-12.436
	c249.3,19.03,617.619,18.116,867.234,32.429c52.841,3.03,56.758-45.175,52.878-83.706c-3.545-35.21-32.604-62.352-67.977-63.396
	l-824.06-24.309c-10.867-0.321-13.971-15.026-4.161-19.711l298.717-142.656c9.651-4.609,20.212-7.001,30.907-7.001h681.515
	c0,0,86.362,1.896,68.718-68.886c-2.793-11.204-7.849-21.737-14.679-31.047c-42.687-58.183-37.792-132.316-31.989-201.577
	c14.132-168.665,28.264-337.329,42.396-505.994c20.627-246.185,43.171-499.386,154.61-719.872
	c44.993-89.021,109.6-175.482,203.289-209.708c167.71-61.266,341.801,65.262,469.379,190.177
	c92.458,90.529,251.497,197.49,399.465,240.898c30.243,8.872,50.6-30.39,25.908-49.978c-44.429-35.246-95.64-70.339-104.564-112.807
	c-17.486-83.21-1.762-171.596,57.865-232.211c50.54-51.377,78.511-103.546,148.044-122.494
	c70.989-19.344,208.529-11.296,254.005-69.137c35.76-45.483-18.742-75.723-4.707-135.895
	c21.244-91.077-51.947-60.923-141.542-90.721c-14.229-4.732-14.558-24.728-0.452-29.813c42.589-15.354,93.105-35.111,134.776-15.826
	c11.865,5.491,25.412-3.283,25.388-16.357l-0.046-25.044c-0.025-13.224,10.777-23.838,24.001-23.776
	c34.341,0.16,59.833-16.935,57.271-48.836c-3.134-39.005-34.951-75.597-54.107-109.718c-10.671-19.007-23.154-36.315-34.196-52.816
	c-11.145-16.654-14.725-37.242-9.941-56.701l10.773-43.817c7.158-29.114,7.798-59.45,1.876-88.841v0
	c-6.177-30.65-19.328-59.466-38.436-84.215l-34.001-44.039c-13.168-19.329-35.589-29.771-58.94-28.458
	c-100.855,5.672-197.598,95.06-274.504,180.953c-53.649,59.918-89.009,133.821-115.34,217.633
	c-10.205,32.484-54.153,37.205-71.084,7.663c-28.804-50.262-49.359-76.146-100.647-127.601
	c-57.544-57.732-151.329-20.839-160.82,60.119c-8.143,69.464,35.752,165.419,91.682,207.412
	c31.368,23.551,74.881,40.588,115.18,45.362c36.738,4.352,61.313-21.305,54.152-57.599c-10.377-52.593-79.535-59.638-131.285-71.924
	c-51.418-12.208-124.803-132.117-78.627-157.82c32.263-17.959,76.123,6.104,97.694,36.072
	c31.481,43.735,109.884,99.211,125.203,200.317c8.073,53.278-61.103,116.771-113.95,127.3c-32.166,6.409-66.12-6.977-97.947,0.947
	c-28.6,7.121-50.15,29.992-69.976,51.799c-62.771,69.045-129.537,170.662-221.951,231.587c-18.64,12.289-3.488,41.023,17.124,32.443
	c53.345-22.205,106.627-78.11,100.486-122.962c-9.471-69.174-61.465-124.47-85.627-189.975
	c-17.362-47.069-20.012-98.619-37.928-145.48c-23.185-60.642-70.262-109.313-97.189-168.389
	c-72.226-158.463,14.807-340.314,99.924-492.243c30.038-53.616,61.945-109.288,113.241-143.137
	c59.3-39.13,134.674-42.671,205.7-40.958c225.02,5.425,455.465,36.619,658.06,134.695c43.347,20.984,96.76,47.645,109.098,56.457
	c42.894,30.638,24.118,66.739-4.595,93.447c-28.714,26.708-147.94,15.022-184.685,28.719
	c-243.621,90.816-407.163,360.119-375.399,618.17c4.011,32.588,10.826,64.993,22.881,95.534
	c24.784,62.786,114.685,135.333,156.164,188.585c185.821,238.561,309.877,486.445,344.016,780.138
	c1.557,13.398-5.022,26.455-16.732,33.148c-127.429,72.833-19.728,258.531,54.667,448.896
	c20.381,52.152,32.304,107.222,35.197,163.14l6.583,127.274c0.773,14.949,8.245,28.753,20.339,37.575l156.539,114.189
	c25.925,18.911,62.907,8.738,75.108-20.941c11.335-27.572,28.378-54.035,42.835-80.233c64.395-116.693,83.072-255.476,65.69-387.619
	c-16.263-123.639-71.979-278.091-135.312-391.032c-4.1-7.312-15.033-6.272-17.495,1.742
	c-23.544,76.648-133.091,88.911-202.901,76.938c-21.146-3.627-46.143-8.81-60.202,9.653c-8.596,11.29-8.843,26.843-1.313,38.869
	c17.494,27.939,49.813,25.318,78.648,27.457c44.434,3.296,86.199-11.473,128.472-25.551c35.79-11.919,67.149-27.264,77.621-58.678
	c2.181-6.542,11.025-7.583,14.668-1.727c21.868,35.145,36.647,91.915-162.179,116.768c-48.096,6.012-86.042-12.521-95.819,0.099
	c-16.777,21.654,5.729,35.726,24.427,63.778c15.193,22.793,42.02,75.778,59.498,117.322
	c56.334,133.903,48.938,244.601,65.237,373.696c2.758,21.845-28.958,28.003-34.486,6.69c-12.264-47.279-13.011-96.742,2.272-143.072
	c26.611-80.666,110.504-142.973,193.177-135.197c28.079,2.641,41.835,35.613,23.512,57.052c-2.468,2.888-5.271,5.456-8.345,7.568
	c-19.196,13.19-44.079,13.717-67.37,13.774c-58.619,0.142-122.06-1.273-168.417-37.151c-37.149-28.75-56.242-74.464-73.309-118.229
	c-38.889-99.727-75.366-200.394-109.39-301.886c-2.69-8.023-3.528-16.605-2.044-24.936c4.469-25.086,25.468-28.032,43.967-28.996
	c52.487-2.735,106.198,1.179,156.608-13.696c50.409-14.875,98.382-55.037,101.679-107.491c1.811-28.811-9.859-56.508-19.935-83.56
	c-43.798-117.589-60.839-245.055-49.468-370.02c9.561-105.073,38.878-208.766,34.44-314.179
	c9.914-133.558-61.937-238.362-177.365-266.235c-17.594-4.248,67.631-4.102,61.302,12.854c-10.2,27.329-84.591,54.739-60.24,64.525
	l86.132,41c15.748,6.329,25.645,17.294,21.756,33.814c-4.118,17.497-15.502,34.895-26.566,49.687
	c-48.117,64.327-96.235,128.654-144.352,192.98c-14.068,18.808-30.081,38.918-53.011,44c-29.382,6.513-58.742-13.868-87.453-23.118
	c-24.724-7.966-46.4,19.032-32.843,41.19c21.097,34.483,92.609,55.305,134.555,44.426c56.98-14.779,105.298-90.557,138.894-138.894
	c100.085-144,158.298-203.234,78.235-257.671c-43.106-26.971-66.672-40.783-100.116-57.153
	c-39.767-19.465,13.302-80.712-28.636-94.907c-25.726-8.708-82.653-11.266-100.7-31.563c-24.945-28.054,16.286-47.186,28.557-82.664
	c6.784-19.614,2.164-65.242-1.503-85.67c-7.078-39.437,1.491-71.053,6.942-102.327c4.516-25.912-14.626-50.108-40.9-51.326
	c-28.62-1.327-60.285,1.38-88.751,13.845c-24.104,10.554-64.853,35.852-83.288,62.558c-6.309,9.139,4.859,20.11,13.856,13.601
	c36.774-26.607,84.995-49.336,136.802-60.163c25.001-5.225,46.763,17.996,40.051,42.64c-8.333,30.595-4.184,53.511-20.783,66.142
	c-12.583,9.575-43.276,11.58-84.76,7.236c-8.379-0.877-11.523-11.439-5.013-16.786c30.622-25.153,64.502-48.903,102.08-43.648
	c2.776,0.388,5.355,1.658,7.435,3.537l0.148,0.134c2.924,2.642,7.039,3.511,10.784,2.285c4.257-1.394,10.248-3.394,16.406-5.462
	c13.89-4.663,24.959-15.55,29.329-29.536c2.183-6.986,5.689-14.12,10.765-21.467c0,0,42.424-215.296-35.193-236.743
	c-77.617-21.447-162.894-15.83-269.617,38.808s-217.586,215.022-245.106,330.894c-27.52,115.872,3.064,265.021-26.553,302.298
	c-29.617,37.277-398.56,341.622-398.56,341.622c-10.661,9.138-19.92,19.795-27.48,31.628v0
	c-18.334,28.697-5.613,66.993,26.248,79.016l0,0c30.759,11.607,59.486,28.012,85.114,48.606l75.699,60.83l90.189,84.243
	c63.483,59.298,134.866,109.526,212.118,149.255l0,0c17.638,9.071,36.249,16.112,55.475,20.989l58.767,14.905
	c35.354,8.967,71.686,13.502,108.16,13.502h22.694l0,0c19.134,0,36.995,9.588,47.568,25.536l97.016,146.333
	c4.925,7.428,14.593,10.056,22.6,6.142l0,0c9.326-4.559,12.771-16.117,7.463-25.038c-44.825-75.324-81.65-127.412-138.302-196.014
	c-17.717-21.454-51.756-17.212-63.642,7.945c-61.363,129.878,0.239,260.829,82.072,375.157
	c37.488,52.373,119.099,9.607,97.353-51.018c-52.588-146.603-126.608-282.914-172.748-271.828
	c-69.358,16.664-182.241,6.212-260.538-40.423c-128.483-76.527-235.274-182.943-336.733-293.603
	c-19.225-20.968-52.886,2.007-40.243,27.491c14.736,29.702,33.338,58.405,49.676,87.026
	c102.306,179.21,243.54,383.442,179.116,579.483c-30.678,93.353-198.264,198.167-246.8,283.607l-126.329,222.385
	c-12.84,22.603-42.784,28.196-63.115,11.996c-71.209-56.739-162.576-89.333-253.42-92.808
	c-34.677-1.326-70.685,1.986-101.115,18.666c-0.304,0.167-0.608,0.335-0.911,0.505c-38.456,21.574-22.078,80.32,21.997,78.998
	c81.012-2.429,162.253,2.76,242.292,15.519c0.289,0.046,0.578,0.094,0.869,0.143c26.931,4.557,30.108,41.788,4.463,51.186
	c-81.955,30.032-151.013,94.257-188.11,173.257c-9.469,20.164,15.176,38.98,32.021,24.405l120.529-104.288
	c30.552-26.435,61.332-53.035,96.263-73.333c94.105-54.684,210.953-58.55,316.957-33.863
	c90.281,21.025,174.613,60.991,257.266,103.466c14.725,7.567,14.446,28.692-0.457,35.903
	c-42.887,20.753-77.01,60.576-95.966,105.057c-22.567,52.958-33.702,121.605,11.595,179.238c5.893,7.498-1.662,17.995-10.63,14.751
	c-53.894-19.491-91.719-109.086-79.316-157.509c14.413-56.269,53.449-102.558,92.609-145.458
	c9.455-10.358,19.25-20.852,31.691-27.324c15.228-7.923,33.071-9.095,50.214-8.208c126.728,6.561,229.175,97.185,350.323,59.42
	c45.032-14.038,188.183-84.375,232.963-99.197c79.303-26.25,98.083,51.584,174.346,85.67
	c40.284,18.005,104.173,73.819,141.281,97.694c29.555,19.016,69.921,92.25,91.367,148.002c9.295,24.165-18.942,45.476-39.474,29.704
	c-13.079-10.047-24.861-23.331-32.393-36.754c-8.59-15.309,6.089-32.982,22.68-27.247c16.624,5.746,32.922,18.115,39.775,31.528
	c5.383,10.535-1.174,23.446-12.843,25.386c-45.311,7.535-71.027-51.216-105.559-80.252
	c-59.734-50.227-100.638-115.442-164.28-155.992c-4.074-2.596-8.388,2.954-4.89,6.286c54.167,51.598,111.333,110.7,169.17,170.56
	c23.587,24.412,39.818,57.862,48.739,87.794c4.865,16.325,1.506,34.168-9.369,47.28c-39.061,47.094-95.388-54.325-66.987-74.766
	c12.326-8.872,38.494,5.78,55.102,23.591c15.322,16.433,6.402,43.235-15.654,47.517c-17.423,3.382-36.55,1.464-50.721-6.291
	c-22.507-12.316-47.172-36.654-64.253-55.798c-51.701-57.947-102.045-121.072-160.669-172.49c-5.596-4.908-13.394,2.72-8.561,8.381
	c12.325,14.436,30.488,29.135,38.47,37.295c52.44,53.613,109.036,115.075,148.27,170.193c21.44,30.12-22.969,63.995-45.787,34.906
	c-5.6-7.139-12.233-19.027-17.382-31.207c-6.719-15.896,10.883-31.14,25.52-21.998c9.232,5.767,18.247,12.883,24.711,18.475
	c13.811,11.95,5.446,30.813-12.115,35.827c-39.8,11.361-69.959-9.134-98.417-35.419c-35.643-32.922-110.471-82.999-104.362-131.134
	c4.602-36.261-14.562-61.061-90-71.223c-113.486-15.287-151.818-17.126-266.115-10.128c-49.798,3.049-66.777,17.187-74.78,26.033
	c-8.398,9.282-9.127,24.838-1.367,34.661c11.778,14.909,31.382,17.375,49.471,19.014c105.09,9.526,210.72,13.104,316.214,10.713
	c0.242-0.006,0.484-0.012,0.727-0.019c27.896-0.819,32.76-40.36,5.911-47.976c-9.486-2.69-20.323-5.154-34.656-7.481
	c-73.619-11.953-172.468-23.672-252.502-19.163c-28.188,1.588-73.584,8.573-83.416,23.672c-3.121,4.792-4.035,30.52-2.62,53.155
	c0.652,10.426-9.328,18.306-19.296,15.181c-33.906-10.63-64.282-13.066-93.335,14.267c-28,26.342-23.042,69.438-10.487,105.774
	c14.996,43.4,26.149,73.251,55.401,100.762c5.123,4.819,11.578,7.983,18.507,9.19c0.125,0.022,0.248,0.044,0.37,0.067
	c11.801,2.202,21.218-9.85,16.498-20.887c-14.825-34.669-34.998-72.78-39.667-112.037c-2.969-24.971,26.865-40.727,45.585-23.936
	c5.927,5.316,10.999,12.458,14.39,20.787c11.626,28.555,4.845,92.517,13.649,122.064c24.381,81.825,193.83,85.199,278.666,75.578
	c74.298-8.426,91.765-27.565,117.192-81.191c18.982-40.034,29.774-77.738,25.632-120.984c-0.915-9.555-15.01-8.978-15.07,0.621
	c-0.227,36.517-0.453,73.034-0.68,109.552c-0.078,12.603,12.366,21.365,24.262,17.206c49.925-17.455,110.053-22.32,130.423,22.798
	c21.032,46.584-27.967,94.667-74.777,115.192c-115.598,50.688-228.425,82.322-382.383,53.215
	c-85.172-16.102-175.145-56.65-228.812-117.89c-24.918-28.434,4.205-71.383,39.731-58.449
	c33.527,12.206,67.014,37.946,97.458,58.004c77.198,50.862,175.505,68.52,265.579,47.703c60.704-14.03,116.8-44.41,177.799-57.099
	c163.256-33.963,322.712,62.407,487.966,86.703c27.553,4.051,51.962-18.106,50.877-45.935
	c9.168-76.793,31.653-206.289,42.418-266.759c3.13-17.586-9.726-33.981-27.55-35.144l-99.077-6.462
	c-21.248-1.386-25.619,41.101-4.979,46.333c55.256,14.007,111.214,22.287,129.899,4.889
	c32.307-30.082,155.027-682.255,209.1-968.347c15.017-79.454,83.418-137.653,164.25-139.791l1254.381-33.176
	c46.478-1.229,81.204,42.384,69.584,87.402c-29.98,116.159-83.698,320.132-126.577,460.294
	c-63.049,206.093-158.05,712.555-186.379,733.016c-21.659,15.643-110.469,36.072-110.469,36.072s-738.397,135.343-1118.222,173.595
	c-13.384,1.348-27.694,2.207-42.363,2.34c-46.479,0.423-48.623-68.872-2.222-71.608c33.784-1.992,55.858-2.875,55.858-2.875
	l1057.351-144.287c0,0,102.04-9.39,141.662-53.01c29.52-32.498,126.9-543.399,159.254-589.178c0.506-0.715,1.02-1.426,1.543-2.131
	c39.752-53.612,122.778-2.449,93.591,57.573c-69.8,143.54-110.598,301.194-118.621,460.624
	c-1.656,32.906-1.529,67.627,14.471,96.429c17.385,31.296,50.435,50.175,82.549,65.995c134.536,66.273,286.75,106.762,434.894,83.41
	s289.979-119.624,339.656-261.132c29.63-84.401,25.294-176.417,20.599-265.745c-4.554-86.622-9.107-173.243-13.661-259.865
	c-0.709-13.486-1.626-27.651-8.88-39.042c-17.395-27.317-57.693-23.253-89.44-16.858c-196.243,39.529-400.146,40.655-596.813,3.296
	c-74.653-14.181-159.9-31.595-220.23,14.608c-116.528,89.241-11.56,298.138-101.893,413.822
	c-39.954-112.519-44.907-237.192-14.006-352.526c-66.979,71.136-170.181,106.231-266.64,90.675
	c140.248-111.167,221.623-208.044,397.473-241.273c117.62-22.226,148.482,34.253,172.608,20.832
	c79.354-44.144,29.683-156.422,22.295-246.926c-17.551-215.032-170.12-422.223-255.18-633.335
	c94.429,188.278,219.434,274.98,336.826,449.865c57.053,84.994,96.941,306.271,111.572,415.853
	c1.46,10.933,16.988,11.77,19.577,1.048c22.815-94.513,28.73-216.306,11.974-300.438c58.649,60.286,92.238,181.926,130.204,309.863
	c4.528,15.26,26.652,13.569,28.828-2.199c25.475-184.674,1.841-376.04-68.497-548.73c113.144,124.636,189.7,280.847,128.67,555.79
	c-5.451,24.558,28.72,36.656,39.979,14.161c67.849-135.567,113.825-282.928,158.878-428.37
	c-17.27,116.867-42.992,232.482-76.865,345.658c-16.666,55.683,34.592,107.83,90.611,92.333
	c155.534-43.027,315.979-68.309,477.215-75.056"/>
</svg>
