<svg xmlns="http://www.w3.org/2000/svg" width="44" height="40" viewBox="0 0 44 40" fill="none"><path d="M21.8175 40C21.5503 40 21.2957 39.8818 21.1212 39.6764L0.213536 14.8435C-0.0282661 14.5563 -0.0682633 14.149 0.111724 13.8218L7.44213 0.475426C7.60212 0.184537 7.90756 0.00273132 8.23844 0.00273132H35.3966C35.7293 0.00273132 36.0347 0.184537 36.1929 0.475426L43.5215 13.8218C43.7033 14.1509 43.6615 14.5563 43.4197 14.8435L22.512 39.6764C22.3393 39.8818 22.0848 40 21.8175 40ZM2.00796 14.149L21.8175 37.6802L41.6271 14.149L34.8585 1.82079H8.77659L2.00796 14.149Z" fill="white"></path><path d="M42.2704 15.4562H1.36411C0.862323 15.4562 0.455078 15.0489 0.455078 14.5471C0.455078 14.0453 0.862323 13.6381 1.36411 13.6381H42.2704C42.7722 13.6381 43.1794 14.0453 43.1794 14.5471C43.1794 15.0489 42.7722 15.4562 42.2704 15.4562Z" fill="white"></path><path d="M31.0208 14.9453C30.7354 14.9453 30.4536 14.8107 30.2772 14.558L21.8214 2.49886L13.4729 14.4944C13.1893 14.9071 12.6202 15.0071 12.2093 14.7217C11.7948 14.4344 11.6948 13.869 11.9821 13.4563L21.0724 0.391727C21.2415 0.148107 21.5196 0.00266266 21.816 0.00266266H21.8178C22.1141 0.00266266 22.3905 0.146289 22.5614 0.389909L31.7644 13.5145C32.0534 13.9272 31.9535 14.4926 31.5426 14.7798C31.3862 14.8907 31.2026 14.9453 31.0208 14.9453Z" fill="white"></path><path d="M21.8178 39.9999C21.4323 39.9999 21.0905 39.7581 20.9615 39.3963L7.38239 1.21713C7.21512 0.742612 7.46238 0.222648 7.93326 0.0553863C8.40959 -0.119147 8.92773 0.133563 9.095 0.606258L21.8178 36.3784L34.5405 0.606258C34.7078 0.135381 35.2259 -0.115511 35.7023 0.0553863C36.175 0.222648 36.4222 0.742612 36.2531 1.21713L22.6741 39.3963C22.545 39.7581 22.2032 39.9999 21.8178 39.9999Z" fill="white"></path></svg>