<svg xmlns="http://www.w3.org/2000/svg" width="40" height="40" viewBox="0 0 40 40" fill="none"><path d="M20.2761 21.3788L15.5469 35.1215C16.9595 35.5356 18.453 35.7641 20.0006 35.7641C21.8356 35.7641 23.5968 35.4465 25.2342 34.8703C25.1922 34.8026 25.1538 34.7309 25.1225 34.6529L20.2761 21.3788Z" fill="white"></path><path d="M4.23633 19.9992C4.23633 26.2392 7.86264 31.6313 13.121 34.186L5.60197 13.5842C4.72756 15.5446 4.23633 17.7142 4.23633 19.9992Z" fill="white"></path><path d="M30.6403 19.204C30.6403 17.2559 29.9412 15.9072 29.3415 14.8563C28.5422 13.5579 27.7932 12.4587 27.7932 11.1598C27.7932 9.71087 28.8919 8.36214 30.4403 8.36214C30.5104 8.36214 30.5764 8.3708 30.6449 8.3741C27.841 5.80574 24.105 4.23676 20.0006 4.23676C14.4927 4.23676 9.64757 7.06208 6.83008 11.3421C7.19964 11.3533 7.54734 11.3611 7.84431 11.3611C9.49331 11.3611 12.046 11.1611 12.046 11.1611C12.8965 11.1099 12.9955 12.3584 12.147 12.4587C12.147 12.4587 11.2929 12.5589 10.343 12.6092L16.0823 29.6837L19.5317 19.3372L17.0751 12.6088C16.2262 12.5585 15.4224 12.4582 15.4224 12.4582C14.5735 12.4088 14.6725 11.1103 15.5218 11.1607C15.5218 11.1607 18.1256 11.3607 19.6736 11.3607C21.3221 11.3607 23.8757 11.1607 23.8757 11.1607C24.7261 11.1103 24.8255 12.358 23.9759 12.4582C23.9759 12.4582 23.1209 12.5585 22.1718 12.6088L27.8691 29.5537L29.4413 24.2999C30.1223 22.1196 30.6403 20.5531 30.6403 19.204Z" fill="white"></path><path d="M33.832 12.4368C33.8996 12.9383 33.9384 13.4782 33.9384 14.0578C33.9384 15.6573 33.6402 17.4556 32.7402 19.7039L27.9248 33.6247C32.6107 30.8917 35.7639 25.8144 35.7639 20C35.7644 17.2588 35.0636 14.6818 33.832 12.4368Z" fill="white"></path><path d="M20.0006 0C8.95499 0 0.000976562 8.95442 0.000976562 20C0.000976562 31.0456 8.95499 40 20.0006 40C31.0461 40 40.0002 31.0456 40.0002 20C40.0002 8.95442 31.0461 0 20.0006 0ZM20.0014 37.5323C10.3334 37.5323 2.46911 29.668 2.46911 19.9992C2.46911 10.332 10.333 2.46773 20.0014 2.46773C29.6681 2.46773 37.532 10.3324 37.532 19.9992C37.5324 29.6671 29.6677 37.5323 20.0014 37.5323Z" fill="white"></path></svg>